solid ascii
  facet normal -3.826834e-001 -9.238795e-001 0.000000e+000
    outer loop
      vertex   -9.000000e+000 -7.310000e+001 -1.000000e+001
      vertex   -9.000000e+000 -7.310000e+001 1.000000e+001
      vertex   -1.112132e+001 -7.222132e+001 -1.000000e+001
    endloop
  endfacet
  facet normal -3.826834e-001 -9.238795e-001 0.000000e+000
    outer loop
      vertex   -1.112132e+001 -7.222132e+001 -1.000000e+001
      vertex   -9.000000e+000 -7.310000e+001 1.000000e+001
      vertex   -1.112132e+001 -7.222132e+001 1.000000e+001
    endloop
  endfacet
  facet normal -9.238795e-001 -3.826834e-001 0.000000e+000
    outer loop
      vertex   -1.200000e+001 -7.010000e+001 -1.000000e+001
      vertex   -1.112132e+001 -7.222132e+001 1.000000e+001
      vertex   -1.200000e+001 -7.010000e+001 1.000000e+001
    endloop
  endfacet
  facet normal -9.238795e-001 -3.826834e-001 0.000000e+000
    outer loop
      vertex   -1.200000e+001 -7.010000e+001 -1.000000e+001
      vertex   -1.112132e+001 -7.222132e+001 -1.000000e+001
      vertex   -1.112132e+001 -7.222132e+001 1.000000e+001
    endloop
  endfacet
  facet normal 3.936525e-015 -1.000000e+000 0.000000e+000
    outer loop
      vertex   -9.000000e+000 -7.310000e+001 -1.000000e+001
      vertex   6.320000e+001 -7.310000e+001 -1.000000e+001
      vertex   -9.000000e+000 -7.310000e+001 1.000000e+001
    endloop
  endfacet
  facet normal 3.936525e-015 -1.000000e+000 0.000000e+000
    outer loop
      vertex   -9.000000e+000 -7.310000e+001 1.000000e+001
      vertex   6.320000e+001 -7.310000e+001 -1.000000e+001
      vertex   6.320000e+001 -7.310000e+001 1.000000e+001
    endloop
  endfacet
  facet normal 0.000000e+000 -0.000000e+000 -1.000000e+000
    outer loop
      vertex   -1.112132e+001 -7.222132e+001 -1.000000e+001
      vertex   -9.000000e+000 -6.810000e+001 -1.000000e+001
      vertex   -9.000000e+000 -7.310000e+001 -1.000000e+001
    endloop
  endfacet
  facet normal 0.000000e+000 0.000000e+000 -1.000000e+000
    outer loop
      vertex   -1.112132e+001 -7.222132e+001 -1.000000e+001
      vertex   -1.200000e+001 -7.010000e+001 -1.000000e+001
      vertex   -9.000000e+000 -6.810000e+001 -1.000000e+001
    endloop
  endfacet
  facet normal -0.000000e+000 0.000000e+000 -1.000000e+000
    outer loop
      vertex   -9.000000e+000 -6.810000e+001 -1.000000e+001
      vertex   -1.200000e+001 -7.010000e+001 -1.000000e+001
      vertex   -1.200000e+001 -6.460000e+001 -1.000000e+001
    endloop
  endfacet
  facet normal -0.000000e+000 -0.000000e+000 -1.000000e+000
    outer loop
      vertex   -9.000000e+000 -6.460000e+001 -1.000000e+001
      vertex   -9.000000e+000 -6.810000e+001 -1.000000e+001
      vertex   -1.200000e+001 -6.460000e+001 -1.000000e+001
    endloop
  endfacet
  facet normal 0.000000e+000 -0.000000e+000 -1.000000e+000
    outer loop
      vertex   -9.000000e+000 -6.810000e+001 -1.000000e+001
      vertex   6.020000e+001 -6.810000e+001 -1.000000e+001
      vertex   -9.000000e+000 -7.310000e+001 -1.000000e+001
    endloop
  endfacet
  facet normal 0.000000e+000 0.000000e+000 -1.000000e+000
    outer loop
      vertex   -9.000000e+000 -7.310000e+001 -1.000000e+001
      vertex   6.020000e+001 -6.810000e+001 -1.000000e+001
      vertex   6.320000e+001 -7.310000e+001 -1.000000e+001
    endloop
  endfacet
  facet normal 0.000000e+000 0.000000e+000 -1.000000e+000
    outer loop
      vertex   6.320000e+001 -7.310000e+001 -1.000000e+001
      vertex   6.020000e+001 -6.810000e+001 -1.000000e+001
      vertex   6.620000e+001 -7.010000e+001 -1.000000e+001
    endloop
  endfacet
  facet normal 0.000000e+000 0.000000e+000 -1.000000e+000
    outer loop
      vertex   6.620000e+001 -7.010000e+001 -1.000000e+001
      vertex   6.020000e+001 -6.810000e+001 -1.000000e+001
      vertex   6.620000e+001 5.500000e+000 -1.000000e+001
    endloop
  endfacet
  facet normal -0.000000e+000 0.000000e+000 -1.000000e+000
    outer loop
      vertex   6.620000e+001 5.500000e+000 -1.000000e+001
      vertex   6.020000e+001 -6.810000e+001 -1.000000e+001
      vertex   6.020000e+001 3.500000e+000 -1.000000e+001
    endloop
  endfacet
  facet normal -0.000000e+000 0.000000e+000 -1.000000e+000
    outer loop
      vertex   6.320000e+001 8.500000e+000 -1.000000e+001
      vertex   6.020000e+001 3.500000e+000 -1.000000e+001
      vertex   3.000000e+000 8.500000e+000 -1.000000e+001
    endloop
  endfacet
  facet normal 0.000000e+000 -0.000000e+000 -1.000000e+000
    outer loop
      vertex   6.320000e+001 8.500000e+000 -1.000000e+001
      vertex   6.620000e+001 5.500000e+000 -1.000000e+001
      vertex   6.020000e+001 3.500000e+000 -1.000000e+001
    endloop
  endfacet
  facet normal -0.000000e+000 0.000000e+000 -1.000000e+000
    outer loop
      vertex   6.020000e+001 3.500000e+000 -1.000000e+001
      vertex   1.500000e+000 3.500000e+000 -1.000000e+001
      vertex   3.000000e+000 8.500000e+000 -1.000000e+001
    endloop
  endfacet
  facet normal -0.000000e+000 0.000000e+000 -1.000000e+000
    outer loop
      vertex   3.000000e+000 8.500000e+000 -1.000000e+001
      vertex   1.500000e+000 3.500000e+000 -1.000000e+001
      vertex   8.786797e-001 7.621320e+000 -1.000000e+001
    endloop
  endfacet
  facet normal -0.000000e+000 -0.000000e+000 -1.000000e+000
    outer loop
      vertex   8.786797e-001 7.621320e+000 -1.000000e+001
      vertex   1.500000e+000 3.500000e+000 -1.000000e+001
      vertex   -3.643276e-014 5.500000e+000 -1.000000e+001
    endloop
  endfacet
  facet normal 0.000000e+000 -0.000000e+000 -1.000000e+000
    outer loop
      vertex   -3.643276e-014 5.500000e+000 -1.000000e+001
      vertex   1.500000e+000 3.500000e+000 -1.000000e+001
      vertex   -6.272760e-014 -1.500000e+000 -1.000000e+001
    endloop
  endfacet
  facet normal 0.000000e+000 -0.000000e+000 -1.000000e+000
    outer loop
      vertex   -6.272760e-014 -1.500000e+000 -1.000000e+001
      vertex   1.500000e+000 3.500000e+000 -1.000000e+001
      vertex   1.500000e+000 -9.625634e-014 -1.000000e+001
    endloop
  endfacet
  facet normal 0.000000e+000 0.000000e+000 -1.000000e+000
    outer loop
      vertex   8.000000e+000 -1.500000e+000 -1.000000e+001
      vertex   1.500000e+000 -9.625634e-014 -1.000000e+001
      vertex   8.000000e+000 -5.133671e-013 -1.000000e+001
    endloop
  endfacet
  facet normal 0.000000e+000 0.000000e+000 -1.000000e+000
    outer loop
      vertex   8.000000e+000 -1.500000e+000 -1.000000e+001
      vertex   -6.272760e-014 -1.500000e+000 -1.000000e+001
      vertex   1.500000e+000 -9.625634e-014 -1.000000e+001
    endloop
  endfacet
  facet normal -9.238795e-001 3.826834e-001 1.794906e-014
    outer loop
      vertex   -3.643276e-014 5.500000e+000 -1.000000e+001
      vertex   3.521257e-013 5.500000e+000 1.000000e+001
      vertex   8.786797e-001 7.621320e+000 -1.000000e+001
    endloop
  endfacet
  facet normal -9.238795e-001 3.826834e-001 2.266525e-017
    outer loop
      vertex   8.786797e-001 7.621320e+000 -1.000000e+001
      vertex   3.521257e-013 5.500000e+000 1.000000e+001
      vertex   8.786797e-001 7.621320e+000 1.000000e+001
    endloop
  endfacet
  facet normal -3.826834e-001 9.238795e-001 2.266525e-017
    outer loop
      vertex   3.000000e+000 8.500000e+000 -1.000000e+001
      vertex   8.786797e-001 7.621320e+000 1.000000e+001
      vertex   3.000000e+000 8.500000e+000 1.000000e+001
    endloop
  endfacet
  facet normal -3.826834e-001 9.238795e-001 1.062160e-017
    outer loop
      vertex   3.000000e+000 8.500000e+000 -1.000000e+001
      vertex   8.786797e-001 7.621320e+000 -1.000000e+001
      vertex   8.786797e-001 7.621320e+000 1.000000e+001
    endloop
  endfacet
  facet normal -1.000000e+000 3.756406e-015 1.942792e-014
    outer loop
      vertex   -3.643276e-014 5.500000e+000 -1.000000e+001
      vertex   -6.272760e-014 -1.500000e+000 -1.000000e+001
      vertex   3.521257e-013 5.500000e+000 1.000000e+001
    endloop
  endfacet
  facet normal -1.000000e+000 6.402286e-014 -1.665335e-015
    outer loop
      vertex   3.521257e-013 5.500000e+000 1.000000e+001
      vertex   -6.272760e-014 -1.500000e+000 -1.000000e+001
      vertex   -9.603429e-014 -1.500000e+000 1.000000e+001
    endloop
  endfacet
  facet normal 7.071068e-001 7.071068e-001 0.000000e+000
    outer loop
      vertex   6.320000e+001 8.500000e+000 1.000000e+001
      vertex   6.620000e+001 5.500000e+000 1.000000e+001
      vertex   6.320000e+001 8.500000e+000 -1.000000e+001
    endloop
  endfacet
  facet normal 7.071068e-001 7.071068e-001 -3.140185e-016
    outer loop
      vertex   6.320000e+001 8.500000e+000 -1.000000e+001
      vertex   6.620000e+001 5.500000e+000 1.000000e+001
      vertex   6.620000e+001 5.500000e+000 -1.000000e+001
    endloop
  endfacet
  facet normal 1.000000e+000 3.759485e-015 -4.440892e-016
    outer loop
      vertex   6.620000e+001 5.500000e+000 1.000000e+001
      vertex   6.620000e+001 -7.010000e+001 1.000000e+001
      vertex   6.620000e+001 5.500000e+000 -1.000000e+001
    endloop
  endfacet
  facet normal 1.000000e+000 -3.524518e-016 -1.598721e-014
    outer loop
      vertex   6.620000e+001 5.500000e+000 -1.000000e+001
      vertex   6.620000e+001 -7.010000e+001 1.000000e+001
      vertex   6.620000e+001 -7.010000e+001 -1.000000e+001
    endloop
  endfacet
  facet normal 7.071068e-001 -7.071068e-001 0.000000e+000
    outer loop
      vertex   6.320000e+001 -7.310000e+001 -1.000000e+001
      vertex   6.620000e+001 -7.010000e+001 -1.000000e+001
      vertex   6.320000e+001 -7.310000e+001 1.000000e+001
    endloop
  endfacet
  facet normal 7.071068e-001 -7.071068e-001 -1.130467e-014
    outer loop
      vertex   6.320000e+001 -7.310000e+001 1.000000e+001
      vertex   6.620000e+001 -7.010000e+001 -1.000000e+001
      vertex   6.620000e+001 -7.010000e+001 1.000000e+001
    endloop
  endfacet
  facet normal 1.000000e+000 -6.439294e-014 3.497203e-015
    outer loop
      vertex   8.000000e+000 -1.500000e+000 1.000000e+001
      vertex   8.000000e+000 -1.500000e+000 -1.000000e+001
      vertex   8.000000e+000 -5.133671e-013 1.000000e+001
    endloop
  endfacet
  facet normal 1.000000e+000 -6.439294e-014 3.497203e-015
    outer loop
      vertex   8.000000e+000 -5.133671e-013 1.000000e+001
      vertex   8.000000e+000 -1.500000e+000 -1.000000e+001
      vertex   8.000000e+000 -5.133671e-013 -1.000000e+001
    endloop
  endfacet
  facet normal -6.418477e-014 -1.000000e+000 -1.068891e-028
    outer loop
      vertex   -9.603429e-014 -1.500000e+000 1.000000e+001
      vertex   -6.272760e-014 -1.500000e+000 -1.000000e+001
      vertex   8.000000e+000 -1.500000e+000 1.000000e+001
    endloop
  endfacet
  facet normal -6.418477e-014 -1.000000e+000 -2.248254e-028
    outer loop
      vertex   8.000000e+000 -1.500000e+000 1.000000e+001
      vertex   -6.272760e-014 -1.500000e+000 -1.000000e+001
      vertex   8.000000e+000 -1.500000e+000 -1.000000e+001
    endloop
  endfacet
  facet normal 6.417089e-014 1.000000e+000 1.690416e-029
    outer loop
      vertex   5.000000e+000 -3.208545e-013 1.000000e+001
      vertex   8.000000e+000 -5.133671e-013 1.000000e+001
      vertex   5.000000e+000 -3.208545e-013 -4.000000e+000
    endloop
  endfacet
  facet normal 6.417089e-014 1.000000e+000 3.821045e-031
    outer loop
      vertex   5.000000e+000 -3.208545e-013 -4.000000e+000
      vertex   8.000000e+000 -5.133671e-013 1.000000e+001
      vertex   8.000000e+000 -5.133671e-013 -1.000000e+001
    endloop
  endfacet
  facet normal 6.417089e-014 1.000000e+000 2.022720e-030
    outer loop
      vertex   1.500000e+000 -9.625634e-014 -1.000000e+001
      vertex   5.000000e+000 -3.208545e-013 -4.000000e+000
      vertex   8.000000e+000 -5.133671e-013 -1.000000e+001
    endloop
  endfacet
  facet normal 8.637789e-001 -5.548426e-014 -5.038710e-001
    outer loop
      vertex   1.500000e+000 3.500000e+000 -1.000000e+001
      vertex   5.000000e+000 3.500000e+000 -4.000000e+000
      vertex   1.500000e+000 -9.625634e-014 -1.000000e+001
    endloop
  endfacet
  facet normal 8.637789e-001 -5.534726e-014 -5.038710e-001
    outer loop
      vertex   1.500000e+000 -9.625634e-014 -1.000000e+001
      vertex   5.000000e+000 3.500000e+000 -4.000000e+000
      vertex   5.000000e+000 -3.208545e-013 -4.000000e+000
    endloop
  endfacet
  facet normal 1.000000e+000 -6.407573e-014 -1.007131e-014
    outer loop
      vertex   5.000000e+000 -3.208545e-013 -4.000000e+000
      vertex   5.000000e+000 3.500000e+000 -4.000000e+000
      vertex   5.000000e+000 -3.208545e-013 1.000000e+001
    endloop
  endfacet
  facet normal 1.000000e+000 2.537653e-015 6.582037e-015
    outer loop
      vertex   5.000000e+000 -3.208545e-013 1.000000e+001
      vertex   5.000000e+000 3.500000e+000 -4.000000e+000
      vertex   5.000000e+000 3.500000e+000 1.000000e+001
    endloop
  endfacet
  facet normal -1.000000e+000 -2.977134e-015 0.000000e+000
    outer loop
      vertex   6.020000e+001 -6.810000e+001 -1.000000e+001
      vertex   6.020000e+001 -6.810000e+001 1.000000e+001
      vertex   6.020000e+001 3.500000e+000 -1.000000e+001
    endloop
  endfacet
  facet normal -1.000000e+000 -2.977134e-015 -7.580116e-029
    outer loop
      vertex   6.020000e+001 3.500000e+000 -1.000000e+001
      vertex   6.020000e+001 -6.810000e+001 1.000000e+001
      vertex   6.020000e+001 3.500000e+000 1.000000e+001
    endloop
  endfacet
  facet normal 3.304235e-015 1.000000e+000 4.934325e-016
    outer loop
      vertex   -7.000000e+000 -6.810000e+001 1.000000e+001
      vertex   6.020000e+001 -6.810000e+001 1.000000e+001
      vertex   -7.000000e+000 -6.810000e+001 -8.000000e+000
    endloop
  endfacet
  facet normal 3.436405e-015 1.000000e+000 0.000000e+000
    outer loop
      vertex   -7.000000e+000 -6.810000e+001 -8.000000e+000
      vertex   6.020000e+001 -6.810000e+001 1.000000e+001
      vertex   6.020000e+001 -6.810000e+001 -1.000000e+001
    endloop
  endfacet
  facet normal 3.337087e-015 1.000000e+000 -3.337087e-015
    outer loop
      vertex   -9.000000e+000 -6.810000e+001 -1.000000e+001
      vertex   -7.000000e+000 -6.810000e+001 -8.000000e+000
      vertex   6.020000e+001 -6.810000e+001 -1.000000e+001
    endloop
  endfacet
  facet normal 7.071068e-001 0.000000e+000 -7.071068e-001
    outer loop
      vertex   -7.000000e+000 -6.810000e+001 -8.000000e+000
      vertex   -9.000000e+000 -6.810000e+001 -1.000000e+001
      vertex   -7.000000e+000 -6.460000e+001 -8.000000e+000
    endloop
  endfacet
  facet normal 7.071068e-001 0.000000e+000 -7.071068e-001
    outer loop
      vertex   -7.000000e+000 -6.460000e+001 -8.000000e+000
      vertex   -9.000000e+000 -6.810000e+001 -1.000000e+001
      vertex   -9.000000e+000 -6.460000e+001 -1.000000e+001
    endloop
  endfacet
  facet normal 0.000000e+000 1.000000e+000 -0.000000e+000
    outer loop
      vertex   -9.000000e+000 -6.460000e+001 -1.000000e+001
      vertex   -1.200000e+001 -6.460000e+001 -1.000000e+001
      vertex   -7.000000e+000 -6.460000e+001 -8.000000e+000
    endloop
  endfacet
  facet normal 0.000000e+000 1.000000e+000 -0.000000e+000
    outer loop
      vertex   -7.000000e+000 -6.460000e+001 -8.000000e+000
      vertex   -1.200000e+001 -6.460000e+001 -1.000000e+001
      vertex   -1.200000e+001 -6.460000e+001 1.000000e+001
    endloop
  endfacet
  facet normal 0.000000e+000 1.000000e+000 0.000000e+000
    outer loop
      vertex   -7.000000e+000 -6.460000e+001 1.000000e+001
      vertex   -7.000000e+000 -6.460000e+001 -8.000000e+000
      vertex   -1.200000e+001 -6.460000e+001 1.000000e+001
    endloop
  endfacet
  facet normal 2.950759e-016 1.000000e+000 0.000000e+000
    outer loop
      vertex   3.000000e+000 8.500000e+000 1.000000e+001
      vertex   6.320000e+001 8.500000e+000 1.000000e+001
      vertex   3.000000e+000 8.500000e+000 -1.000000e+001
    endloop
  endfacet
  facet normal 2.950759e-016 1.000000e+000 0.000000e+000
    outer loop
      vertex   3.000000e+000 8.500000e+000 -1.000000e+001
      vertex   6.320000e+001 8.500000e+000 1.000000e+001
      vertex   6.320000e+001 8.500000e+000 -1.000000e+001
    endloop
  endfacet
  facet normal -1.000000e+000 1.170781e-014 0.000000e+000
    outer loop
      vertex   -1.200000e+001 -7.010000e+001 1.000000e+001
      vertex   -1.200000e+001 -6.460000e+001 1.000000e+001
      vertex   -1.200000e+001 -7.010000e+001 -1.000000e+001
    endloop
  endfacet
  facet normal -1.000000e+000 1.170781e-014 0.000000e+000
    outer loop
      vertex   -1.200000e+001 -7.010000e+001 -1.000000e+001
      vertex   -1.200000e+001 -6.460000e+001 1.000000e+001
      vertex   -1.200000e+001 -6.460000e+001 -1.000000e+001
    endloop
  endfacet
  facet normal 1.000000e+000 0.000000e+000 -5.551115e-016
    outer loop
      vertex   -7.000000e+000 -6.810000e+001 -8.000000e+000
      vertex   -7.000000e+000 -6.460000e+001 -8.000000e+000
      vertex   -7.000000e+000 -6.810000e+001 1.000000e+001
    endloop
  endfacet
  facet normal 1.000000e+000 2.854859e-015 -0.000000e+000
    outer loop
      vertex   -7.000000e+000 -6.810000e+001 1.000000e+001
      vertex   -7.000000e+000 -6.460000e+001 -8.000000e+000
      vertex   -7.000000e+000 -6.460000e+001 1.000000e+001
    endloop
  endfacet
  facet normal -3.761082e-015 -1.000000e+000 -2.475558e-029
    outer loop
      vertex   5.000000e+000 3.500000e+000 1.000000e+001
      vertex   5.000000e+000 3.500000e+000 -4.000000e+000
      vertex   6.020000e+001 3.500000e+000 1.000000e+001
    endloop
  endfacet
  facet normal 2.609627e-015 -1.000000e+000 -2.511880e-014
    outer loop
      vertex   6.020000e+001 3.500000e+000 1.000000e+001
      vertex   5.000000e+000 3.500000e+000 -4.000000e+000
      vertex   6.020000e+001 3.500000e+000 -1.000000e+001
    endloop
  endfacet
  facet normal 4.794575e-015 -1.000000e+000 -5.017281e-015
    outer loop
      vertex   6.020000e+001 3.500000e+000 -1.000000e+001
      vertex   5.000000e+000 3.500000e+000 -4.000000e+000
      vertex   1.500000e+000 3.500000e+000 -1.000000e+001
    endloop
  endfacet
  facet normal -0.000000e+000 0.000000e+000 1.000000e+000
    outer loop
      vertex   -1.200000e+001 -6.460000e+001 1.000000e+001
      vertex   -1.200000e+001 -7.010000e+001 1.000000e+001
      vertex   -7.000000e+000 -6.810000e+001 1.000000e+001
    endloop
  endfacet
  facet normal 0.000000e+000 0.000000e+000 1.000000e+000
    outer loop
      vertex   -7.000000e+000 -6.460000e+001 1.000000e+001
      vertex   -1.200000e+001 -6.460000e+001 1.000000e+001
      vertex   -7.000000e+000 -6.810000e+001 1.000000e+001
    endloop
  endfacet
  facet normal -0.000000e+000 0.000000e+000 1.000000e+000
    outer loop
      vertex   -1.200000e+001 -7.010000e+001 1.000000e+001
      vertex   -1.112132e+001 -7.222132e+001 1.000000e+001
      vertex   -7.000000e+000 -6.810000e+001 1.000000e+001
    endloop
  endfacet
  facet normal 0.000000e+000 0.000000e+000 1.000000e+000
    outer loop
      vertex   -7.000000e+000 -6.810000e+001 1.000000e+001
      vertex   -1.112132e+001 -7.222132e+001 1.000000e+001
      vertex   -9.000000e+000 -7.310000e+001 1.000000e+001
    endloop
  endfacet
  facet normal -0.000000e+000 0.000000e+000 1.000000e+000
    outer loop
      vertex   6.020000e+001 -6.810000e+001 1.000000e+001
      vertex   -9.000000e+000 -7.310000e+001 1.000000e+001
      vertex   6.320000e+001 -7.310000e+001 1.000000e+001
    endloop
  endfacet
  facet normal 0.000000e+000 0.000000e+000 1.000000e+000
    outer loop
      vertex   6.620000e+001 -7.010000e+001 1.000000e+001
      vertex   6.020000e+001 -6.810000e+001 1.000000e+001
      vertex   6.320000e+001 -7.310000e+001 1.000000e+001
    endloop
  endfacet
  facet normal 0.000000e+000 0.000000e+000 1.000000e+000
    outer loop
      vertex   6.620000e+001 -7.010000e+001 1.000000e+001
      vertex   6.020000e+001 3.500000e+000 1.000000e+001
      vertex   6.020000e+001 -6.810000e+001 1.000000e+001
    endloop
  endfacet
  facet normal 0.000000e+000 0.000000e+000 1.000000e+000
    outer loop
      vertex   6.620000e+001 -7.010000e+001 1.000000e+001
      vertex   6.620000e+001 5.500000e+000 1.000000e+001
      vertex   6.020000e+001 3.500000e+000 1.000000e+001
    endloop
  endfacet
  facet normal 0.000000e+000 -0.000000e+000 1.000000e+000
    outer loop
      vertex   6.020000e+001 3.500000e+000 1.000000e+001
      vertex   6.620000e+001 5.500000e+000 1.000000e+001
      vertex   6.320000e+001 8.500000e+000 1.000000e+001
    endloop
  endfacet
  facet normal -0.000000e+000 0.000000e+000 1.000000e+000
    outer loop
      vertex   3.000000e+000 8.500000e+000 1.000000e+001
      vertex   6.020000e+001 3.500000e+000 1.000000e+001
      vertex   6.320000e+001 8.500000e+000 1.000000e+001
    endloop
  endfacet
  facet normal 0.000000e+000 0.000000e+000 1.000000e+000
    outer loop
      vertex   3.000000e+000 8.500000e+000 1.000000e+001
      vertex   5.000000e+000 3.500000e+000 1.000000e+001
      vertex   6.020000e+001 3.500000e+000 1.000000e+001
    endloop
  endfacet
  facet normal 0.000000e+000 0.000000e+000 1.000000e+000
    outer loop
      vertex   3.000000e+000 8.500000e+000 1.000000e+001
      vertex   8.786797e-001 7.621320e+000 1.000000e+001
      vertex   5.000000e+000 3.500000e+000 1.000000e+001
    endloop
  endfacet
  facet normal 0.000000e+000 0.000000e+000 1.000000e+000
    outer loop
      vertex   5.000000e+000 3.500000e+000 1.000000e+001
      vertex   8.786797e-001 7.621320e+000 1.000000e+001
      vertex   3.521257e-013 5.500000e+000 1.000000e+001
    endloop
  endfacet
  facet normal 0.000000e+000 -0.000000e+000 1.000000e+000
    outer loop
      vertex   -9.603429e-014 -1.500000e+000 1.000000e+001
      vertex   5.000000e+000 3.500000e+000 1.000000e+001
      vertex   3.521257e-013 5.500000e+000 1.000000e+001
    endloop
  endfacet
  facet normal 0.000000e+000 -0.000000e+000 1.000000e+000
    outer loop
      vertex   -9.603429e-014 -1.500000e+000 1.000000e+001
      vertex   5.000000e+000 -3.208545e-013 1.000000e+001
      vertex   5.000000e+000 3.500000e+000 1.000000e+001
    endloop
  endfacet
  facet normal -0.000000e+000 -0.000000e+000 1.000000e+000
    outer loop
      vertex   -9.603429e-014 -1.500000e+000 1.000000e+001
      vertex   8.000000e+000 -1.500000e+000 1.000000e+001
      vertex   5.000000e+000 -3.208545e-013 1.000000e+001
    endloop
  endfacet
  facet normal -0.000000e+000 0.000000e+000 1.000000e+000
    outer loop
      vertex   5.000000e+000 -3.208545e-013 1.000000e+001
      vertex   8.000000e+000 -1.500000e+000 1.000000e+001
      vertex   8.000000e+000 -5.133671e-013 1.000000e+001
    endloop
  endfacet
  facet normal 0.000000e+000 0.000000e+000 1.000000e+000
    outer loop
      vertex   6.020000e+001 -6.810000e+001 1.000000e+001
      vertex   -7.000000e+000 -6.810000e+001 1.000000e+001
      vertex   -9.000000e+000 -7.310000e+001 1.000000e+001
    endloop
  endfacet
endsolid
